# xmcd CD database file
#
# Track frame offsets:
#	150
#	45408
#	68896
#	91232
#	109462
#	145727
#	156612
#
# Disc length: 2427 seconds
#
# Revision: 0
# Processed by: cddbd v1.5.2PL0 Copyright (c) Steve Scherf et al.
# Submitted via: CDex 1.70beta2
#
DISCID=5f097907
DTITLE=Zenith - Stimmungswechsel
DYEAR=1977
DGENRE=Jazz
TTITLE0=01 In Gedanken an... 
TTITLE1=02 Beschwörende Töne für meine betörende Schöne
TTITLE2=03 Kinderspiele
TTITLE3=04 Shiwas
TTITLE4=05 Spiegelbild
TTITLE5=06 Was ist daran so schlimm
TTITLE6=07 Anno 1353
EXTD=YEAR: 1977
EXTT0=
EXTT1=
EXTT2=
EXTT3=
EXTT4=
EXTT5=
EXTT6=
PLAYORDER=
